<?xml version="1.0" encoding="UTF-8"?>
<svg xmlns="http://www.w3.org/2000/svg" xmlns:xlink="http://www.w3.org/1999/xlink" width="200px" height="200px" viewBox="0 0 200 200" version="1.1">
<g id="surface1">
<path style=" stroke:none;fill-rule:nonzero;fill:rgb(25.490198%,29.019609%,78.431374%);fill-opacity:1;" d="M 72.5625 86.207031 C 72.671875 86.214844 72.777344 86.21875 72.890625 86.222656 C 73 86.230469 73.113281 86.234375 73.230469 86.238281 C 73.34375 86.238281 73.453125 86.246094 73.566406 86.25 C 75.207031 86.324219 75.207031 86.324219 75.800781 86.902344 C 76.109375 87.515625 75.890625 88.375 75.699219 89 C 75.425781 88.730469 75.441406 88.527344 75.394531 88.152344 C 75.34375 87.707031 75.34375 87.707031 75.199219 87.300781 C 74.152344 87.265625 73.140625 87.371094 72.097656 87.5 C 72.105469 87.59375 72.105469 87.59375 72.105469 87.691406 C 72.109375 87.984375 72.109375 88.277344 72.113281 88.566406 C 72.113281 88.671875 72.113281 88.769531 72.121094 88.875 C 72.121094 89.019531 72.121094 89.019531 72.121094 89.171875 C 72.121094 89.300781 72.121094 89.300781 72.125 89.441406 C 72.09375 89.800781 71.957031 90.082031 71.800781 90.402344 C 71.871094 90.371094 71.941406 90.339844 72.019531 90.308594 C 72.28125 90.207031 72.515625 90.152344 72.796875 90.109375 C 72.933594 90.089844 72.933594 90.089844 73.078125 90.0625 C 73.269531 90.035156 73.464844 90.003906 73.65625 89.972656 C 74.265625 89.875 74.753906 89.703125 75.300781 89.402344 C 75.5 89.300781 75.5 89.300781 75.699219 89.300781 C 75.699219 89.234375 75.699219 89.167969 75.699219 89.097656 C 75.988281 88.871094 76.191406 88.800781 76.5625 88.75 C 76.902344 88.800781 76.902344 88.800781 77.066406 89 C 77.238281 89.394531 77.246094 89.730469 77.238281 90.15625 C 77.234375 90.234375 77.234375 90.316406 77.234375 90.394531 C 77.207031 91.480469 76.988281 92.722656 76.1875 93.511719 C 75.359375 94.175781 74.417969 94.46875 73.355469 94.371094 C 73.0625 94.332031 72.785156 94.277344 72.5 94.199219 C 72.5 94.136719 72.5 94.066406 72.5 94 C 72.589844 93.984375 72.671875 93.972656 72.765625 93.957031 C 73.722656 93.785156 74.75 93.484375 75.402344 92.699219 C 75.691406 92.074219 75.792969 91.375 75.902344 90.699219 C 75.824219 90.730469 75.75 90.753906 75.671875 90.785156 C 75.527344 90.839844 75.527344 90.839844 75.375 90.894531 C 75.230469 90.949219 75.230469 90.949219 75.078125 91.003906 C 74.714844 91.128906 74.386719 91.214844 74 91.21875 C 72.644531 91.230469 72.644531 91.230469 71.464844 91.792969 C 71.207031 92.269531 71.109375 92.777344 71 93.300781 C 70.933594 93.300781 70.871094 93.300781 70.800781 93.300781 C 70.59375 92.683594 70.609375 91.941406 70.839844 91.339844 C 70.890625 91.261719 70.941406 91.183594 71 91.097656 C 71.066406 91 71.128906 90.902344 71.199219 90.800781 C 69.964844 90.847656 69.964844 90.847656 68.699219 90.902344 C 68.667969 91.308594 68.640625 91.714844 68.609375 92.113281 C 68.597656 92.253906 68.589844 92.390625 68.578125 92.53125 C 68.5625 92.730469 68.546875 92.925781 68.535156 93.125 C 68.527344 93.246094 68.515625 93.363281 68.503906 93.488281 C 68.5 93.753906 68.515625 93.949219 68.597656 94.199219 C 68.707031 94.199219 68.8125 94.191406 68.925781 94.1875 C 69.496094 94.1875 70.042969 94.296875 70.597656 94.402344 C 70.597656 94.464844 70.597656 94.53125 70.597656 94.597656 C 68.636719 94.984375 68.636719 94.984375 67.996094 94.628906 C 67.503906 94.050781 67.53125 93.347656 67.484375 92.625 C 67.46875 92.421875 67.453125 92.21875 67.4375 92.011719 C 67.375 91.167969 67.378906 90.582031 67.855469 89.863281 C 68.675781 89.3125 69.855469 89.480469 70.800781 89.5 C 70.796875 89.4375 70.796875 89.378906 70.796875 89.316406 C 70.785156 89.042969 70.785156 88.769531 70.78125 88.496094 C 70.78125 88.402344 70.777344 88.308594 70.777344 88.207031 C 70.765625 87.625 70.816406 87.214844 71.097656 86.699219 C 71.566406 86.246094 71.925781 86.183594 72.5625 86.207031 Z M 72.5625 86.207031 "/>
<path style=" stroke:none;fill-rule:nonzero;fill:rgb(38.431373%,56.470591%,90.196079%);fill-opacity:1;" d="M 80.902344 88.402344 C 81.660156 88.402344 82.417969 88.402344 83.199219 88.402344 C 83.375 88.933594 83.546875 89.4375 83.683594 89.980469 C 83.714844 90.097656 83.746094 90.21875 83.777344 90.339844 C 83.824219 90.519531 83.824219 90.519531 83.871094 90.707031 C 83.902344 90.832031 83.933594 90.953125 83.964844 91.082031 C 84.042969 91.390625 84.121094 91.691406 84.199219 92 C 84.371094 91.605469 84.472656 91.21875 84.566406 90.796875 C 84.582031 90.734375 84.597656 90.667969 84.613281 90.597656 C 84.660156 90.390625 84.707031 90.183594 84.753906 89.972656 C 84.816406 89.699219 84.878906 89.421875 84.941406 89.144531 C 84.972656 89.027344 85 88.90625 85.027344 88.78125 C 85.097656 88.5 85.097656 88.5 85.199219 88.402344 C 85.363281 88.390625 85.527344 88.390625 85.691406 88.390625 C 85.839844 88.390625 85.839844 88.390625 85.988281 88.390625 C 86.09375 88.390625 86.199219 88.390625 86.308594 88.394531 C 86.464844 88.394531 86.464844 88.394531 86.625 88.394531 C 86.878906 88.394531 87.140625 88.394531 87.402344 88.402344 C 87.402344 88.464844 87.402344 88.53125 87.402344 88.597656 C 87.265625 88.597656 87.136719 88.597656 87 88.597656 C 87 90.347656 87 92.097656 87 93.902344 C 87.128906 93.902344 87.265625 93.902344 87.402344 93.902344 C 87.402344 93.964844 87.402344 94.03125 87.402344 94.097656 C 86.574219 94.097656 85.75 94.097656 84.902344 94.097656 C 84.902344 94.035156 84.902344 93.96875 84.902344 93.902344 C 85.03125 93.902344 85.160156 93.902344 85.300781 93.902344 C 85.265625 92.578125 85.234375 91.261719 85.199219 89.902344 C 84.871094 91.285156 84.542969 92.671875 84.199219 94.097656 C 83.800781 94.097656 83.40625 94.097656 83 94.097656 C 82.605469 92.683594 82.207031 91.261719 81.800781 89.800781 C 81.765625 91.152344 81.734375 92.503906 81.699219 93.902344 C 81.832031 93.902344 81.964844 93.902344 82.097656 93.902344 C 82.097656 93.964844 82.097656 94.03125 82.097656 94.097656 C 81.703125 94.097656 81.308594 94.097656 80.902344 94.097656 C 80.902344 94.035156 80.902344 93.96875 80.902344 93.902344 C 81.0625 93.902344 81.230469 93.902344 81.402344 93.902344 C 81.402344 92.152344 81.402344 90.402344 81.402344 88.597656 C 81.234375 88.597656 81.066406 88.597656 80.902344 88.597656 C 80.902344 88.535156 80.902344 88.46875 80.902344 88.402344 Z M 80.902344 88.402344 "/>
<path style=" stroke:none;fill-rule:nonzero;fill:rgb(25.882354%,29.411766%,78.431374%);fill-opacity:1;" d="M 78.988281 90.167969 C 79.515625 90.738281 79.472656 91.488281 79.527344 92.222656 C 79.535156 92.34375 79.546875 92.464844 79.558594 92.582031 C 79.675781 94.171875 79.675781 94.171875 79.265625 94.660156 C 78.863281 95.011719 78.527344 95.109375 78.011719 95.128906 C 77.917969 95.136719 77.824219 95.140625 77.730469 95.144531 C 77.628906 95.144531 77.53125 95.152344 77.433594 95.15625 C 77.332031 95.160156 77.234375 95.167969 77.128906 95.171875 C 76.886719 95.183594 76.644531 95.191406 76.402344 95.199219 C 76.402344 95.253906 76.402344 95.3125 76.40625 95.371094 C 76.410156 95.628906 76.417969 95.890625 76.417969 96.152344 C 76.421875 96.238281 76.421875 96.328125 76.425781 96.417969 C 76.433594 97.015625 76.359375 97.457031 76.097656 98 C 75.878906 98.152344 75.878906 98.152344 75.699219 98.199219 C 75.699219 98.265625 75.699219 98.332031 75.699219 98.402344 C 75.074219 98.640625 74.472656 98.625 73.808594 98.605469 C 73.660156 98.605469 73.515625 98.597656 73.371094 98.597656 C 73.136719 98.59375 72.894531 98.589844 72.65625 98.582031 C 72.582031 98.578125 72.503906 98.578125 72.433594 98.578125 C 71.878906 98.558594 71.488281 98.402344 71.097656 98 C 70.53125 97.113281 70.808594 95.285156 71.011719 94.292969 C 71.230469 93.390625 71.621094 92.730469 72.394531 92.214844 C 73.386719 91.65625 73.386719 91.65625 73.824219 91.746094 C 73.878906 91.761719 73.9375 91.78125 74 91.800781 C 73.871094 91.878906 73.871094 91.878906 73.734375 91.964844 C 72.871094 92.515625 72.253906 93.03125 72.011719 94.082031 C 72.003906 94.21875 72 94.359375 72 94.5 C 72 94.59375 71.996094 94.691406 71.988281 94.792969 C 71.980469 95.605469 72.042969 96.386719 72.097656 97.199219 C 73.058594 97.199219 74.015625 97.199219 75 97.199219 C 75.011719 96.40625 75.011719 96.40625 75.011719 95.621094 C 75.027344 94.984375 75.082031 94.582031 75.53125 94.121094 C 75.878906 93.875 76.230469 93.890625 76.640625 93.894531 C 76.792969 93.894531 76.792969 93.894531 76.949219 93.894531 C 77.105469 93.894531 77.105469 93.894531 77.269531 93.902344 C 77.480469 93.902344 77.691406 93.90625 77.902344 93.90625 C 77.996094 93.90625 78.089844 93.90625 78.183594 93.910156 C 78.394531 93.921875 78.394531 93.921875 78.5 93.800781 C 78.546875 93.375 78.574219 92.953125 78.605469 92.527344 C 78.621094 92.3125 78.636719 92.097656 78.652344 91.886719 C 78.660156 91.753906 78.671875 91.621094 78.675781 91.484375 C 78.6875 91.359375 78.699219 91.234375 78.707031 91.109375 C 78.730469 90.78125 78.730469 90.78125 78.5 90.5 C 78.261719 90.425781 78.261719 90.425781 77.996094 90.394531 C 77.722656 90.355469 77.722656 90.355469 77.5 90.300781 C 77.449219 90.203125 77.449219 90.203125 77.402344 90.097656 C 77.953125 89.964844 78.484375 89.871094 78.988281 90.167969 Z M 78.988281 90.167969 "/>
<path style=" stroke:none;fill-rule:nonzero;fill:rgb(38.82353%,56.470591%,90.196079%);fill-opacity:1;" d="M 99.199219 88.402344 C 99.683594 88.390625 100.160156 88.378906 100.640625 88.378906 C 100.800781 88.375 100.96875 88.375 101.128906 88.371094 C 102.980469 88.332031 102.980469 88.332031 103.699219 88.800781 C 104.015625 89.21875 104.058594 89.582031 104 90.097656 C 103.816406 90.621094 103.574219 90.828125 103.097656 91.097656 C 103.15625 91.125 103.207031 91.152344 103.265625 91.171875 C 103.988281 91.511719 103.988281 91.511719 104.199219 91.902344 C 104.359375 92.371094 104.355469 92.753906 104.183594 93.21875 C 103.824219 93.777344 103.4375 93.953125 102.800781 94.097656 C 102.515625 94.125 102.230469 94.125 101.941406 94.121094 C 101.863281 94.121094 101.785156 94.121094 101.703125 94.121094 C 101.453125 94.121094 101.207031 94.113281 100.957031 94.113281 C 100.785156 94.109375 100.613281 94.109375 100.449219 94.109375 C 100.03125 94.109375 99.613281 94.105469 99.199219 94.097656 C 99.199219 94.035156 99.199219 93.96875 99.199219 93.902344 C 99.363281 93.902344 99.53125 93.902344 99.699219 93.902344 C 99.699219 92.152344 99.699219 90.402344 99.699219 88.597656 C 99.535156 88.597656 99.371094 88.597656 99.199219 88.597656 C 99.199219 88.535156 99.199219 88.46875 99.199219 88.402344 Z M 101.402344 88.597656 C 101.402344 89.390625 101.402344 90.183594 101.402344 91 C 102.058594 90.984375 102.058594 90.984375 102.238281 90.734375 C 102.316406 90.4375 102.328125 90.160156 102.332031 89.855469 C 102.332031 89.746094 102.332031 89.636719 102.339844 89.519531 C 102.296875 89.15625 102.238281 88.972656 102 88.699219 C 101.703125 88.652344 101.703125 88.652344 101.402344 88.597656 Z M 101.402344 91.300781 C 101.402344 92.15625 101.402344 93.015625 101.402344 93.902344 C 101.957031 93.949219 101.957031 93.949219 102.230469 93.769531 C 102.5625 93.4375 102.519531 93.058594 102.527344 92.613281 C 102.527344 92.488281 102.53125 92.371094 102.53125 92.246094 C 102.5 91.875 102.421875 91.691406 102.199219 91.402344 C 101.949219 91.253906 101.949219 91.253906 101.402344 91.300781 Z M 101.402344 91.300781 "/>
<path style=" stroke:none;fill-rule:nonzero;fill:rgb(39.607844%,57.254905%,90.196079%);fill-opacity:1;" d="M 93.902344 88 C 94.625 88 95.355469 88 96.097656 88 C 96.097656 89.949219 96.097656 91.894531 96.097656 93.902344 C 96.234375 93.902344 96.363281 93.902344 96.5 93.902344 C 96.5 93.964844 96.5 94.03125 96.5 94.097656 C 95.839844 94.097656 95.183594 94.097656 94.5 94.097656 C 94.46875 94.035156 94.433594 93.96875 94.402344 93.902344 C 94.316406 93.972656 94.316406 93.972656 94.234375 94.046875 C 93.824219 94.3125 93.375 94.25 92.902344 94.199219 C 92.4375 94.019531 92.246094 93.722656 92 93.300781 C 91.78125 92.65625 91.769531 91.628906 92.011719 90.988281 C 92.296875 90.550781 92.597656 90.265625 93.097656 90.097656 C 93.652344 90.074219 93.871094 90.089844 94.402344 90.300781 C 94.402344 89.609375 94.402344 88.910156 94.402344 88.199219 C 94.234375 88.199219 94.066406 88.199219 93.902344 88.199219 C 93.902344 88.136719 93.902344 88.066406 93.902344 88 Z M 93.800781 90.5 C 93.550781 90.871094 93.550781 91.175781 93.53125 91.605469 C 93.527344 91.683594 93.519531 91.761719 93.519531 91.839844 C 93.453125 92.863281 93.453125 92.863281 93.800781 93.800781 C 94.089844 93.746094 94.1875 93.714844 94.402344 93.5 C 94.546875 93.0625 94.519531 92.613281 94.519531 92.160156 C 94.519531 92.078125 94.519531 91.996094 94.519531 91.90625 C 94.527344 91.433594 94.484375 91.046875 94.300781 90.597656 C 94.136719 90.566406 93.96875 90.535156 93.800781 90.5 Z M 93.800781 90.5 "/>
<path style=" stroke:none;fill-rule:nonzero;fill:rgb(40.000001%,57.254905%,90.196079%);fill-opacity:1;" d="M 113.199219 88 C 113.890625 88 114.589844 88 115.300781 88 C 115.332031 89.253906 115.363281 90.511719 115.402344 91.800781 C 115.730469 91.503906 116.0625 91.207031 116.402344 90.902344 C 116.5625 90.765625 116.730469 90.636719 116.902344 90.5 C 116.734375 90.46875 116.566406 90.433594 116.402344 90.402344 C 116.402344 90.332031 116.402344 90.265625 116.402344 90.199219 C 116.964844 90.199219 117.519531 90.199219 118.097656 90.199219 C 118.097656 90.265625 118.097656 90.332031 118.097656 90.402344 C 118 90.421875 117.894531 90.441406 117.792969 90.464844 C 117.46875 90.550781 117.277344 90.6875 117.027344 90.90625 C 116.964844 90.964844 116.902344 91.015625 116.839844 91.074219 C 116.792969 91.113281 116.746094 91.15625 116.699219 91.199219 C 116.84375 91.503906 116.988281 91.808594 117.128906 92.113281 C 117.171875 92.199219 117.214844 92.28125 117.253906 92.371094 C 117.425781 92.734375 117.597656 93.09375 117.78125 93.449219 C 117.902344 93.699219 117.902344 93.699219 117.902344 93.902344 C 118.03125 93.902344 118.160156 93.902344 118.300781 93.902344 C 118.300781 93.964844 118.300781 94.03125 118.300781 94.097656 C 117.511719 94.097656 116.714844 94.097656 115.902344 94.097656 C 115.902344 94.035156 115.902344 93.96875 115.902344 93.902344 C 116 93.902344 116.097656 93.902344 116.199219 93.902344 C 115.9375 93.371094 115.671875 92.84375 115.402344 92.300781 C 115.363281 92.828125 115.332031 93.355469 115.300781 93.902344 C 115.433594 93.902344 115.5625 93.902344 115.699219 93.902344 C 115.699219 93.964844 115.699219 94.03125 115.699219 94.097656 C 114.90625 94.097656 114.113281 94.097656 113.300781 94.097656 C 113.300781 94.035156 113.300781 93.96875 113.300781 93.902344 C 113.433594 93.902344 113.5625 93.902344 113.699219 93.902344 C 113.699219 92.019531 113.699219 90.136719 113.699219 88.199219 C 113.535156 88.199219 113.371094 88.199219 113.199219 88.199219 C 113.199219 88.136719 113.199219 88.066406 113.199219 88 Z M 113.199219 88 "/>
<path style=" stroke:none;fill-rule:nonzero;fill:rgb(42.352942%,58.431375%,89.803922%);fill-opacity:1;" d="M 112.402344 90.402344 C 112.878906 90.796875 113.074219 91.128906 113.136719 91.75 C 113.144531 93.167969 113.144531 93.167969 112.699219 93.699219 C 111.964844 94.285156 111.203125 94.265625 110.300781 94.199219 C 109.761719 94.050781 109.390625 93.78125 109.097656 93.300781 C 108.816406 92.574219 108.78125 91.8125 109.089844 91.082031 C 109.363281 90.625 109.746094 90.363281 110.230469 90.160156 C 110.996094 90.03125 111.707031 90.015625 112.402344 90.402344 Z M 110.800781 90.402344 C 110.46875 90.941406 110.566406 91.589844 110.566406 92.199219 C 110.566406 92.328125 110.566406 92.457031 110.5625 92.589844 C 110.5625 92.714844 110.5625 92.832031 110.5625 92.964844 C 110.5625 93.074219 110.5625 93.1875 110.5625 93.300781 C 110.605469 93.625 110.683594 93.765625 110.902344 94 C 111.097656 93.996094 111.097656 93.996094 111.300781 93.902344 C 111.546875 93.363281 111.53125 92.839844 111.527344 92.261719 C 111.527344 92.171875 111.527344 92.082031 111.527344 91.988281 C 111.527344 91.425781 111.457031 90.941406 111.300781 90.402344 C 111.136719 90.402344 110.96875 90.402344 110.800781 90.402344 Z M 110.800781 90.402344 "/>
<path style=" stroke:none;fill-rule:nonzero;fill:rgb(42.352942%,58.431375%,89.803922%);fill-opacity:1;" d="M 108 90.402344 C 108.480469 90.796875 108.671875 91.128906 108.734375 91.75 C 108.75 93.167969 108.75 93.167969 108.300781 93.699219 C 107.5625 94.285156 106.800781 94.265625 105.902344 94.199219 C 105.363281 94.050781 104.988281 93.78125 104.699219 93.300781 C 104.421875 92.574219 104.378906 91.8125 104.6875 91.082031 C 104.964844 90.625 105.34375 90.363281 105.832031 90.160156 C 106.59375 90.03125 107.308594 90.015625 108 90.402344 Z M 106.402344 90.402344 C 106.066406 90.941406 106.167969 91.589844 106.167969 92.199219 C 106.167969 92.328125 106.167969 92.457031 106.160156 92.589844 C 106.160156 92.714844 106.160156 92.832031 106.160156 92.964844 C 106.160156 93.074219 106.160156 93.1875 106.160156 93.300781 C 106.203125 93.625 106.28125 93.765625 106.5 94 C 106.699219 93.996094 106.699219 93.996094 106.902344 93.902344 C 107.144531 93.363281 107.128906 92.839844 107.125 92.261719 C 107.125 92.171875 107.125 92.082031 107.125 91.988281 C 107.125 91.425781 107.058594 90.941406 106.902344 90.402344 C 106.734375 90.402344 106.566406 90.402344 106.402344 90.402344 Z M 106.402344 90.402344 "/>
<path style=" stroke:none;fill-rule:nonzero;fill:rgb(41.568628%,58.039218%,89.803922%);fill-opacity:1;" d="M 91 90.402344 C 91.324219 90.660156 91.488281 90.894531 91.597656 91.300781 C 91.597656 91.5625 91.597656 91.828125 91.597656 92.097656 C 90.839844 92.097656 90.082031 92.097656 89.300781 92.097656 C 89.328125 92.292969 89.359375 92.480469 89.386719 92.675781 C 89.40625 92.78125 89.421875 92.890625 89.4375 93 C 89.496094 93.269531 89.542969 93.46875 89.699219 93.699219 C 90.097656 93.8125 90.332031 93.824219 90.722656 93.691406 C 91.046875 93.464844 91.15625 93.265625 91.300781 92.902344 C 91.402344 92.902344 91.5 92.902344 91.597656 92.902344 C 91.472656 93.347656 91.328125 93.660156 91 94 C 90.34375 94.339844 89.441406 94.316406 88.738281 94.128906 C 88.28125 93.921875 88.015625 93.660156 87.800781 93.199219 C 87.582031 92.480469 87.542969 91.816406 87.800781 91.097656 C 88.457031 89.996094 89.933594 89.800781 91 90.402344 Z M 89.5 90.402344 C 89.261719 90.863281 89.28125 91.292969 89.300781 91.800781 C 89.5625 91.800781 89.828125 91.800781 90.097656 91.800781 C 90.066406 91.371094 90.035156 90.941406 90 90.5 C 89.832031 90.46875 89.671875 90.433594 89.5 90.402344 Z M 89.5 90.402344 "/>
<path style=" stroke:none;fill-rule:nonzero;fill:rgb(42.352942%,58.431375%,89.803922%);fill-opacity:1;" d="M 96.5 90.199219 C 97.191406 90.199219 97.886719 90.199219 98.597656 90.199219 C 98.597656 91.421875 98.597656 92.640625 98.597656 93.902344 C 98.765625 93.902344 98.933594 93.902344 99.097656 93.902344 C 99.097656 93.964844 99.097656 94.03125 99.097656 94.097656 C 98.277344 94.097656 97.449219 94.097656 96.597656 94.097656 C 96.597656 94.035156 96.597656 93.96875 96.597656 93.902344 C 96.734375 93.902344 96.863281 93.902344 97 93.902344 C 97 92.746094 97 91.589844 97 90.402344 C 96.832031 90.402344 96.671875 90.402344 96.5 90.402344 C 96.5 90.332031 96.5 90.265625 96.5 90.199219 Z M 96.5 90.199219 "/>
<path style=" stroke:none;fill-rule:nonzero;fill:rgb(29.803923%,52.156866%,90.980393%);fill-opacity:1;" d="M 98.402344 88.199219 C 98.671875 88.421875 98.691406 88.550781 98.746094 88.894531 C 98.6875 89.296875 98.621094 89.441406 98.300781 89.699219 C 97.957031 89.761719 97.640625 89.765625 97.300781 89.699219 C 97.078125 89.542969 97.011719 89.453125 96.953125 89.1875 C 96.949219 88.785156 96.949219 88.566406 97.191406 88.238281 C 97.621094 88.046875 97.957031 88.066406 98.402344 88.199219 Z M 98.402344 88.199219 "/>
<path style=" stroke:none;fill-rule:nonzero;fill:rgb(27.450982%,31.764707%,76.862746%);fill-opacity:1;" d="M 68.402344 93.800781 C 68.464844 93.933594 68.53125 94.0625 68.597656 94.199219 C 68.707031 94.199219 68.8125 94.191406 68.925781 94.1875 C 69.496094 94.1875 70.042969 94.296875 70.597656 94.402344 C 70.597656 94.464844 70.597656 94.53125 70.597656 94.597656 C 69.03125 94.90625 69.03125 94.90625 68.300781 94.800781 C 68.03125 94.597656 68.03125 94.597656 67.902344 94.402344 C 68.03125 94.402344 68.160156 94.402344 68.300781 94.402344 C 68.332031 94.203125 68.363281 94.003906 68.402344 93.800781 Z M 68.402344 93.800781 "/>
<path style=" stroke:none;fill-rule:nonzero;fill:rgb(27.843139%,32.156864%,74.509805%);fill-opacity:1;" d="M 75.800781 87.097656 C 75.832031 87.097656 75.863281 87.097656 75.902344 87.097656 C 75.921875 87.769531 75.894531 88.355469 75.699219 89 C 75.421875 88.722656 75.457031 88.527344 75.4375 88.136719 C 75.433594 88.019531 75.421875 87.902344 75.417969 87.777344 C 75.410156 87.6875 75.40625 87.59375 75.402344 87.5 C 75.5 87.5 75.597656 87.5 75.699219 87.5 C 75.734375 87.371094 75.765625 87.234375 75.800781 87.097656 Z M 75.800781 87.097656 "/>
<path style=" stroke:none;fill-rule:nonzero;fill:rgb(29.411766%,35.686275%,76.47059%);fill-opacity:1;" d="M 78.699219 90 C 78.902344 90.152344 78.902344 90.152344 79 90.300781 C 78.871094 90.300781 78.734375 90.300781 78.597656 90.300781 C 78.699219 90.332031 78.796875 90.363281 78.902344 90.402344 C 78.863281 90.53125 78.832031 90.660156 78.800781 90.800781 C 78.761719 90.753906 78.722656 90.703125 78.683594 90.65625 C 78.453125 90.457031 78.285156 90.4375 77.988281 90.394531 C 77.71875 90.355469 77.71875 90.355469 77.5 90.300781 C 77.46875 90.234375 77.433594 90.167969 77.402344 90.097656 C 77.84375 89.988281 78.246094 89.96875 78.699219 90 Z M 78.699219 90 "/>
<path style=" stroke:none;fill-rule:nonzero;fill:rgb(25.882354%,31.37255%,70.980394%);fill-opacity:1;" d="M 73.597656 94 C 73.566406 94.128906 73.535156 94.265625 73.5 94.402344 C 73.171875 94.332031 72.839844 94.265625 72.5 94.199219 C 72.5 94.136719 72.5 94.066406 72.5 94 C 72.902344 93.917969 73.203125 93.894531 73.597656 94 Z M 73.597656 94 "/>
<path style=" stroke:none;fill-rule:nonzero;fill:rgb(28.235295%,32.549021%,73.333335%);fill-opacity:1;" d="M 68.300781 89.699219 C 68.265625 89.894531 68.234375 90.09375 68.199219 90.300781 C 68.109375 90.300781 68.109375 90.300781 68.019531 90.308594 C 67.753906 90.390625 67.753906 90.390625 67.625 90.753906 C 67.582031 90.871094 67.542969 90.984375 67.5 91.097656 C 67.402344 90.902344 67.402344 90.902344 67.441406 90.71875 C 67.824219 89.699219 67.824219 89.699219 68.300781 89.699219 Z M 68.300781 89.699219 "/>
<path style=" stroke:none;fill-rule:nonzero;fill:rgb(26.274511%,33.725491%,69.01961%);fill-opacity:1;" d="M 69.097656 94.199219 C 69.84375 94.296875 69.84375 94.296875 70.597656 94.402344 C 70.597656 94.464844 70.597656 94.53125 70.597656 94.597656 C 70.269531 94.597656 69.9375 94.597656 69.597656 94.597656 C 69.597656 94.535156 69.597656 94.46875 69.597656 94.402344 C 69.4375 94.363281 69.269531 94.332031 69.097656 94.300781 C 69.097656 94.265625 69.097656 94.234375 69.097656 94.199219 Z M 69.097656 94.199219 "/>
<path style=" stroke:none;fill-rule:nonzero;fill:rgb(26.274511%,32.156864%,68.235296%);fill-opacity:1;" d="M 70.800781 91.5 C 70.902344 91.53125 71 91.566406 71.097656 91.597656 C 71 91.75 71 91.75 70.902344 91.902344 C 70.855469 92.128906 70.855469 92.128906 70.839844 92.371094 C 70.828125 92.449219 70.824219 92.53125 70.8125 92.613281 C 70.8125 92.675781 70.808594 92.734375 70.800781 92.800781 C 70.863281 92.800781 70.933594 92.800781 71 92.800781 C 71 92.964844 71 93.128906 71 93.300781 C 70.933594 93.300781 70.871094 93.300781 70.800781 93.300781 C 70.6875 92.964844 70.6875 92.699219 70.6875 92.34375 C 70.6875 92.230469 70.6875 92.113281 70.6875 91.996094 C 70.699219 91.699219 70.699219 91.699219 70.800781 91.5 Z M 70.800781 91.5 "/>
<path style=" stroke:none;fill-rule:nonzero;fill:rgb(30.980393%,36.862746%,71.764708%);fill-opacity:1;" d="M 74 91.800781 C 73.777344 91.988281 73.5625 92.167969 73.300781 92.300781 C 73.003906 92.230469 73.003906 92.230469 72.800781 92.097656 C 73.230469 91.816406 73.5 91.652344 74 91.800781 Z M 74 91.800781 "/>
<path style=" stroke:none;fill-rule:nonzero;fill:rgb(23.921569%,28.627452%,72.941178%);fill-opacity:1;" d="M 71.800781 90.402344 C 71.902344 90.433594 72 90.464844 72.097656 90.5 C 72.035156 90.5 71.96875 90.5 71.902344 90.5 C 71.902344 90.566406 71.902344 90.628906 71.902344 90.699219 C 71.703125 90.832031 71.5 90.96875 71.300781 91.097656 C 71.160156 91.230469 71.027344 91.359375 70.902344 91.5 C 70.953125 91.125 71.105469 90.964844 71.386719 90.71875 C 71.457031 90.65625 71.527344 90.59375 71.597656 90.53125 C 71.667969 90.484375 71.730469 90.441406 71.800781 90.402344 Z M 71.800781 90.402344 "/>
<path style=" stroke:none;fill-rule:nonzero;fill:rgb(25.098041%,33.725491%,67.843139%);fill-opacity:1;" d="M 78.300781 90 C 78.332031 90.128906 78.363281 90.265625 78.402344 90.402344 C 78.25 90.390625 78.105469 90.375 77.957031 90.363281 C 77.875 90.355469 77.792969 90.347656 77.707031 90.34375 C 77.640625 90.328125 77.566406 90.3125 77.5 90.300781 C 77.46875 90.234375 77.433594 90.167969 77.402344 90.097656 C 77.714844 90.03125 77.972656 90 78.300781 90 Z M 78.300781 90 "/>
<path style=" stroke:none;fill-rule:nonzero;fill:rgb(21.960784%,27.058825%,71.764708%);fill-opacity:1;" d="M 74.800781 93.199219 C 74.832031 93.296875 74.863281 93.394531 74.902344 93.5 C 74.800781 93.652344 74.800781 93.652344 74.699219 93.800781 C 74.402344 93.75 74.402344 93.75 74.097656 93.699219 C 74.25 93.402344 74.503906 93.339844 74.800781 93.199219 Z M 74.800781 93.199219 "/>
</g>
</svg>
