<?xml version="1.0" encoding="UTF-8"?>
<svg version="1.1" xmlns="http://www.w3.org/2000/svg" width="2000" height="2000">
<path d="M0 0 C1.08345703 0.04382813 2.16691406 0.08765625 3.28320312 0.1328125 C4.41048828 0.184375 5.53777344 0.2359375 6.69921875 0.2890625 C7.81490234 0.33289063 8.93058594 0.37671875 10.08007812 0.421875 C26.45196871 1.12061603 26.45196871 1.12061603 32.38671875 6.9140625 C35.45485062 13.05032624 33.27510132 21.65879525 31.38671875 27.9140625 C28.68239203 25.20973578 28.81888528 23.17186537 28.32421875 19.4140625 C27.84167314 15.01648134 27.84167314 15.01648134 26.38671875 10.9140625 C15.89746327 10.58048194 5.77785654 11.60788132 -4.61328125 12.9140625 C-4.5975708 13.87445435 -4.5975708 13.87445435 -4.58154297 14.85424805 C-4.5398331 17.76997921 -4.51390762 20.68564745 -4.48828125 23.6015625 C-4.47152344 24.60896484 -4.45476563 25.61636719 -4.4375 26.65429688 C-4.42783203 28.11899414 -4.42783203 28.11899414 -4.41796875 29.61328125 C-4.4022583 30.95652466 -4.4022583 30.95652466 -4.38623047 32.3269043 C-4.70097158 35.91326086 -6.01930357 38.72610714 -7.61328125 41.9140625 C-6.89035889 41.60251221 -6.16743652 41.29096191 -5.42260742 40.9699707 C-2.77860826 39.97620201 -0.44766932 39.43875727 2.3359375 39.01953125 C3.73295898 38.79233398 3.73295898 38.79233398 5.15820312 38.56054688 C7.08137303 38.25783761 9.00586179 37.96337621 10.93164062 37.67773438 C17.05693433 36.66316683 21.96199057 34.94139576 27.40161133 31.9309082 C29.38671875 30.9140625 29.38671875 30.9140625 31.38671875 30.9140625 C31.38671875 30.2540625 31.38671875 29.5940625 31.38671875 28.9140625 C34.30005215 26.61870892 36.31504716 25.92394824 40.01171875 25.4140625 C43.38671875 25.9140625 43.38671875 25.9140625 45.07421875 27.91015625 C46.80669284 31.87525321 46.83924373 35.1961081 46.76171875 39.4765625 C46.75229248 40.27578125 46.74286621 41.075 46.7331543 41.8984375 C46.46015735 52.70520092 44.26666353 65.15171661 36.23828125 73.01953125 C27.99329923 79.66208321 18.57061608 82.60713858 7.94921875 81.6015625 C5.0284639 81.23105488 2.23111529 80.67213629 -0.61328125 79.9140625 C-0.61328125 79.2540625 -0.61328125 78.5940625 -0.61328125 77.9140625 C0.258125 77.77871094 1.12953125 77.64335938 2.02734375 77.50390625 C11.62653633 75.76898725 21.89049504 72.77369119 28.38671875 64.9140625 C31.31561349 58.66575373 32.31285605 51.67308067 33.38671875 44.9140625 C32.6390625 45.19121094 31.89140625 45.46835937 31.12109375 45.75390625 C29.64382813 46.29724609 29.64382813 46.29724609 28.13671875 46.8515625 C26.67492187 47.39103516 26.67492187 47.39103516 25.18359375 47.94140625 C21.51292482 49.21793776 18.26377714 50.02394464 14.375 50.125 C0.86054721 50.18750044 0.86054721 50.18750044 -10.98828125 55.8515625 C-13.50754979 60.59941476 -14.51128002 65.67955668 -15.61328125 70.9140625 C-16.27328125 70.9140625 -16.93328125 70.9140625 -17.61328125 70.9140625 C-19.67692208 64.72314001 -19.54109964 57.36012916 -17.23828125 51.2890625 C-16.70203125 50.5053125 -16.16578125 49.7215625 -15.61328125 48.9140625 C-14.95328125 47.9240625 -14.29328125 46.9340625 -13.61328125 45.9140625 C-25.98828125 46.4090625 -25.98828125 46.4090625 -38.61328125 46.9140625 C-38.92236972 50.9705294 -39.22751971 55.0269981 -39.52270508 59.08447266 C-39.62424134 60.46387602 -39.72805931 61.84311345 -39.83422852 63.22216797 C-39.98667517 65.207553 -40.13016393 67.19361942 -40.2734375 69.1796875 C-40.36246338 70.37368164 -40.45148926 71.56767578 -40.54321289 72.79785156 C-40.60330131 75.47021576 -40.44288066 77.40078428 -39.61328125 79.9140625 C-38.54078125 79.8728125 -37.46828125 79.8315625 -36.36328125 79.7890625 C-30.68224502 79.76862712 -25.18032932 80.87488019 -19.61328125 81.9140625 C-19.61328125 82.5740625 -19.61328125 83.2340625 -19.61328125 83.9140625 C-39.2700874 87.75623054 -39.2700874 87.75623054 -45.67578125 84.2265625 C-50.54530619 78.41454886 -50.29630448 71.4226599 -50.78344727 64.15893555 C-50.9247529 62.11642676 -51.09354565 60.07739306 -51.26367188 58.03710938 C-51.85213317 49.58580351 -51.79502866 43.75031856 -47.05078125 36.5390625 C-38.83509348 31.06193732 -27.06144025 32.71676916 -17.61328125 32.9140625 C-17.6289917 32.31456787 -17.64470215 31.71507324 -17.66088867 31.09741211 C-17.72372255 28.34889373 -17.7624236 25.60052708 -17.80078125 22.8515625 C-17.82591797 21.90861328 -17.85105469 20.96566406 -17.87695312 19.99414062 C-17.93803947 14.15021359 -17.45917001 10.05699005 -14.61328125 4.9140625 C-9.92812441 0.34903789 -6.3632537 -0.26420008 0 0 Z " fill="#414AC8" transform="translate(725.61328125,862.0859375)"/>
<path d="M0 0 C7.59 0 15.18 0 23 0 C24.77322029 5.31966086 26.44390799 10.3941312 27.82421875 15.78515625 C28.13037109 16.97431641 28.43652344 18.16347656 28.75195312 19.38867188 C29.21504883 21.2072168 29.21504883 21.2072168 29.6875 23.0625 C30.00783203 24.30966797 30.32816406 25.55683594 30.65820312 26.84179688 C31.44166985 29.89380903 32.22219312 32.94654147 33 36 C34.70863739 32.06122465 35.74656523 28.16910369 36.69140625 23.984375 C36.841577 23.32794006 36.99174774 22.67150513 37.14646912 21.99517822 C37.62232518 19.91430508 38.09299169 17.83231391 38.5625 15.75 C39.1846287 12.99382151 39.81162421 10.23881335 40.44140625 7.484375 C40.71670166 6.26459961 40.99199707 5.04482422 41.27563477 3.78808594 C42 1 42 1 43 0 C44.63472882 -0.08700342 46.27314055 -0.10701063 47.91015625 -0.09765625 C49.39418945 -0.09282227 49.39418945 -0.09282227 50.90820312 -0.08789062 C51.94912109 -0.07951172 52.99003906 -0.07113281 54.0625 -0.0625 C55.62967773 -0.05573242 55.62967773 -0.05573242 57.22851562 -0.04882812 C59.8190666 -0.03699913 62.40950559 -0.02051689 65 0 C65 0.66 65 1.32 65 2 C63.68 2 62.36 2 61 2 C61 19.49 61 36.98 61 55 C62.32 55 63.64 55 65 55 C65 55.66 65 56.32 65 57 C56.75 57 48.5 57 40 57 C40 56.34 40 55.68 40 55 C41.32 55 42.64 55 44 55 C43.67 41.8 43.34 28.6 43 15 C39.7 28.86 36.4 42.72 33 57 C29.04 57 25.08 57 21 57 C17.04 42.81 13.08 28.62 9 14 C8.67 27.53 8.34 41.06 8 55 C9.32 55 10.64 55 12 55 C12 55.66 12 56.32 12 57 C8.04 57 4.08 57 0 57 C0 56.34 0 55.68 0 55 C1.65 55 3.3 55 5 55 C5 37.51 5 20.02 5 2 C3.35 2 1.7 2 0 2 C0 1.34 0 0.68 0 0 Z " fill="#6290E6" transform="translate(809,884)"/>
<path d="M0 0 C5.26133938 5.72557521 4.83854515 13.18624583 5.375 20.5625 C5.478125 21.75230469 5.58125 22.94210937 5.6875 24.16796875 C6.87929736 40.02938947 6.87929736 40.02938947 2.77075195 44.92675781 C-1.20843644 48.40954475 -4.62107869 49.41081849 -9.76171875 49.62890625 C-10.69951172 49.67080078 -11.63730469 49.71269531 -12.60351562 49.75585938 C-13.57998047 49.79517578 -14.55644531 49.83449219 -15.5625 49.875 C-16.55056641 49.91818359 -17.53863281 49.96136719 -18.55664062 50.00585938 C-20.99595546 50.11191654 -23.43537113 50.21397714 -25.875 50.3125 C-25.85928955 50.87646484 -25.8435791 51.44042969 -25.82739258 52.02148438 C-25.76438426 54.61838435 -25.72580402 57.21512275 -25.6875 59.8125 C-25.66236328 60.699375 -25.63722656 61.58625 -25.61132812 62.5 C-25.54528694 68.48773375 -26.30523989 72.876469 -28.875 78.3125 C-31.0625 79.8125 -31.0625 79.8125 -32.875 80.3125 C-32.875 80.9725 -32.875 81.6325 -32.875 82.3125 C-39.14448138 84.70087386 -45.14039466 84.57268706 -51.79199219 84.37011719 C-53.2480845 84.32984084 -54.70458044 84.30293201 -56.16113281 84.28613281 C-58.54618005 84.25772773 -60.92834029 84.1949275 -63.3125 84.125 C-64.05733643 84.11944092 -64.80217285 84.11388184 -65.56958008 84.1081543 C-71.08398905 83.88361919 -74.96899439 82.30145555 -78.875 78.3125 C-84.57806451 69.43776662 -81.78806092 51.17980241 -79.79638672 41.22485352 C-77.59406135 32.23665479 -73.65665113 25.6088763 -65.9375 20.4375 C-56.03143943 14.89780011 -56.03143943 14.89780011 -51.640625 15.7421875 C-51.05796875 15.93039062 -50.4753125 16.11859375 -49.875 16.3125 C-51.17824219 17.11300781 -51.17824219 17.11300781 -52.5078125 17.9296875 C-61.17801913 23.4533672 -67.34443196 28.64359639 -69.75 39.125 C-69.82823513 40.51926184 -69.86525186 41.91607894 -69.875 43.3125 C-69.90078125 44.26769531 -69.9265625 45.22289062 -69.953125 46.20703125 C-70.07102299 54.33216781 -69.45699545 62.16456369 -68.875 70.3125 C-59.305 70.3125 -49.735 70.3125 -39.875 70.3125 C-39.7836972 62.40040516 -39.7836972 62.40040516 -39.75732422 54.48803711 C-39.59461538 48.15211382 -39.02302382 44.1294064 -34.54736328 39.48657227 C-31.09384714 37.06205268 -27.59474097 37.19911538 -23.48828125 37.25 C-21.9578418 37.26160156 -21.9578418 37.26160156 -20.39648438 37.2734375 C-18.80803711 37.29277344 -18.80803711 37.29277344 -17.1875 37.3125 C-15.07947695 37.33788258 -12.97139608 37.35895854 -10.86328125 37.375 C-9.93040283 37.38660156 -8.99752441 37.39820313 -8.03637695 37.41015625 C-5.89451854 37.55684184 -5.89451854 37.55684184 -4.875 36.3125 C-4.38171331 32.08275889 -4.12203371 27.83266369 -3.83520508 23.58447266 C-3.6885297 21.4524673 -3.52528783 19.32214274 -3.36132812 17.19140625 C-3.2672041 15.8386126 -3.17407263 14.48574945 -3.08203125 13.1328125 C-2.9941333 11.89805176 -2.90623535 10.66329102 -2.81567383 9.39111328 C-2.60190719 6.13869244 -2.60190719 6.13869244 -4.875 3.3125 C-7.26093418 2.58810748 -7.26093418 2.58810748 -9.9375 2.25 C-12.66015625 1.83984375 -12.66015625 1.83984375 -14.875 1.3125 C-15.37 0.3225 -15.37 0.3225 -15.875 -0.6875 C-10.33092529 -2.07351868 -5.05036547 -2.96434495 0 0 Z " fill="#424BC8" transform="translate(789.875,901.6875)"/>
<path d="M0 0 C4.80137245 -0.09978872 9.60212521 -0.17189617 14.40429688 -0.21972656 C16.03363578 -0.23969079 17.66290445 -0.2668723 19.29199219 -0.30175781 C37.77788519 -0.68735313 37.77788519 -0.68735313 45 4 C48.17384572 8.20067816 48.55497209 11.82026048 48 17 C46.17139486 22.18104791 43.71122972 24.27795616 39 27 C39.54269531 27.24234375 40.08539062 27.4846875 40.64453125 27.734375 C47.87250684 31.12045366 47.87250684 31.12045366 50 35 C51.56840852 39.70522555 51.54895539 43.52648816 49.8125 48.1875 C46.21084405 53.77627648 42.35348848 55.51512353 36 57 C33.1414597 57.24422632 30.30863354 57.23470567 27.44140625 57.1953125 C26.65225327 57.1924826 25.86310028 57.18965271 25.05003357 57.18673706 C22.55402828 57.17563057 20.05839502 57.15054455 17.5625 57.125 C15.86003126 57.11495785 14.15755684 57.10583417 12.45507812 57.09765625 C8.30324424 57.0757226 4.15168498 57.04125977 0 57 C0 56.34 0 55.68 0 55 C1.65 55 3.3 55 5 55 C5 37.51 5 20.02 5 2 C3.35 2 1.7 2 0 2 C0 1.34 0 0.68 0 0 Z M22 2 C22 9.92 22 17.84 22 26 C28.59482341 25.84467003 28.59482341 25.84467003 30.41796875 23.33984375 C31.16037215 20.35528244 31.30182796 17.63960535 31.3125 14.5625 C31.32925781 13.45003906 31.34601562 12.33757813 31.36328125 11.19140625 C30.95262268 7.58379279 30.37258729 5.75220126 28 3 C25.03 2.505 25.03 2.505 22 2 Z M22 29 C22 37.58 22 46.16 22 55 C27.57348174 55.49360552 27.57348174 55.49360552 30.3125 53.6875 C33.61548278 50.38451722 33.19383376 46.55277211 33.25 42.125 C33.27578125 40.91070313 33.3015625 39.69640625 33.328125 38.4453125 C32.97719855 34.76058479 32.22102379 32.92183227 30 30 C27.47825081 28.5527864 27.47825081 28.5527864 22 29 Z " fill="#6390E6" transform="translate(992,884)"/>
<path d="M0 0 C7.26 0 14.52 0 22 0 C22 19.47 22 38.94 22 59 C23.32 59 24.64 59 26 59 C26 59.66 26 60.32 26 61 C19.4 61 12.8 61 6 61 C5.67 60.34 5.34 59.68 5 59 C4.17822266 59.73089844 4.17822266 59.73089844 3.33984375 60.4765625 C-0.76553743 63.14951519 -5.26884669 62.50690928 -10 62 C-14.63486514 60.22494527 -16.57112671 57.25052826 -19 53 C-21.21085797 46.54196752 -21.30482716 36.32118853 -18.875 29.875 C-16.05182419 25.54613042 -13.00655388 22.66885129 -8 21 C-2.4979039 20.73376954 -0.30447111 20.87821156 5 23 C5 16.07 5 9.14 5 2 C3.35 2 1.7 2 0 2 C0 1.34 0 0.68 0 0 Z M-1 25 C-3.45929305 28.68893957 -3.48873952 31.77316551 -3.6875 36.0625 C-3.72657471 36.82385254 -3.76564941 37.58520508 -3.8059082 38.36962891 C-4.48492312 48.66572059 -4.48492312 48.66572059 -1 58 C1.86724686 57.42655063 2.8614515 57.1385485 5 55 C6.44608773 50.63703209 6.18403522 46.17078766 6.1875 41.625 C6.19974609 40.78710938 6.21199219 39.94921875 6.22460938 39.0859375 C6.23586069 34.31538183 5.84709958 30.48268435 4 26 C2.35 25.67 0.7 25.34 -1 25 Z " fill="#6592E6" transform="translate(939,880)"/>
<path d="M0 0 C6.93 0 13.86 0 21 0 C21.33 12.54 21.66 25.08 22 38 C25.3 35.03 28.6 32.06 32 29 C33.65 27.68 35.3 26.36 37 25 C35.35 24.67 33.7 24.34 32 24 C32 23.34 32 22.68 32 22 C37.61 22 43.22 22 49 22 C49 22.66 49 23.32 49 24 C47.989375 24.20625 46.97875 24.4125 45.9375 24.625 C42.71334379 25.51839656 40.7393747 26.86005579 38.25390625 29.0859375 C37.63974854 29.63040527 37.02559082 30.17487305 36.39282227 30.73583984 C35.93319092 31.1530127 35.47355957 31.57018555 35 32 C36.43641085 35.04218216 37.87432554 38.08365123 39.3125 41.125 C39.71662109 41.9809375 40.12074219 42.836875 40.53710938 43.71875 C42.24778388 47.33480994 43.96563312 50.93306321 45.79296875 54.4921875 C47 57 47 57 47 59 C48.32 59 49.64 59 51 59 C51 59.66 51 60.32 51 61 C43.08 61 35.16 61 27 61 C27 60.34 27 59.68 27 59 C27.99 59 28.98 59 30 59 C27.36 53.72 24.72 48.44 22 43 C21.67 48.28 21.34 53.56 21 59 C22.32 59 23.64 59 25 59 C25 59.66 25 60.32 25 61 C17.08 61 9.16 61 1 61 C1 60.34 1 59.68 1 59 C2.32 59 3.64 59 5 59 C5 40.19 5 21.38 5 2 C3.35 2 1.7 2 0 2 C0 1.34 0 0.68 0 0 Z " fill="#6692E6" transform="translate(1132,880)"/>
<path d="M0 0 C4.78025486 3.94890619 6.74221493 7.32323182 7.3359375 13.48828125 C7.48093132 27.68317629 7.48093132 27.68317629 3 33 C-4.38401676 38.87707457 -11.97212865 38.67709035 -21 38 C-26.37335658 36.52872379 -30.09300662 33.80771983 -33 29 C-35.80515095 21.70660753 -36.19011106 14.11089503 -33.10546875 6.85546875 C-30.37016522 2.26441158 -26.55025446 -0.35649815 -21.6875 -2.375 C-14.05742769 -3.6682326 -6.92022428 -3.86854409 0 0 Z M-16 0 C-19.31896117 5.41736385 -18.32791035 11.86051705 -18.3125 18 C-18.32861328 19.28390625 -18.34472656 20.5678125 -18.36132812 21.890625 C-18.36197266 23.12296875 -18.36261719 24.3553125 -18.36328125 25.625 C-18.36626221 26.75164063 -18.36924316 27.87828125 -18.37231445 29.0390625 C-17.96569645 32.27280881 -17.18168175 33.63479883 -15 36 C-13.03243548 35.96877057 -13.03243548 35.96877057 -11 35 C-8.52107597 29.66077901 -8.70132841 24.38447134 -8.75 18.625 C-8.74226563 17.7175 -8.73453125 16.81 -8.7265625 15.875 C-8.74278693 10.24512441 -9.40615405 5.40136683 -11 0 C-12.65 0 -14.3 0 -16 0 Z " fill="#6C95E5" transform="translate(1124,904)"/>
<path d="M0 0 C4.78025486 3.94890619 6.74221493 7.32323182 7.3359375 13.48828125 C7.48093132 27.68317629 7.48093132 27.68317629 3 33 C-4.38401676 38.87707457 -11.97212865 38.67709035 -21 38 C-26.37335658 36.52872379 -30.09300662 33.80771983 -33 29 C-35.80515095 21.70660753 -36.19011106 14.11089503 -33.10546875 6.85546875 C-30.37016522 2.26441158 -26.55025446 -0.35649815 -21.6875 -2.375 C-14.05742769 -3.6682326 -6.92022428 -3.86854409 0 0 Z M-16 0 C-19.31896117 5.41736385 -18.32791035 11.86051705 -18.3125 18 C-18.32861328 19.28390625 -18.34472656 20.5678125 -18.36132812 21.890625 C-18.36197266 23.12296875 -18.36261719 24.3553125 -18.36328125 25.625 C-18.36626221 26.75164063 -18.36924316 27.87828125 -18.37231445 29.0390625 C-17.96569645 32.27280881 -17.18168175 33.63479883 -15 36 C-13.03243548 35.96877057 -13.03243548 35.96877057 -11 35 C-8.52107597 29.66077901 -8.70132841 24.38447134 -8.75 18.625 C-8.74226563 17.7175 -8.73453125 16.81 -8.7265625 15.875 C-8.74278693 10.24512441 -9.40615405 5.40136683 -11 0 C-12.65 0 -14.3 0 -16 0 Z " fill="#6C95E5" transform="translate(1080,904)"/>
<path d="M0 0 C3.24610611 2.63197793 4.89933004 4.96421014 6 9 C6 11.64 6 14.28 6 17 C-1.59 17 -9.18 17 -17 17 C-16.71125 18.8975 -16.4225 20.795 -16.125 22.75 C-15.96257813 23.81734375 -15.80015625 24.8846875 -15.6328125 25.984375 C-15.05897215 28.71897223 -14.5642672 30.6967514 -13 33 C-9.03519895 34.14369261 -6.68241359 34.22309675 -2.75 32.9375 C0.48638012 30.6573231 1.54546316 28.6363421 3 25 C3.99 25 4.98 25 6 25 C4.74420769 29.49992245 3.2734182 32.63305557 0 36 C-6.5548375 39.3596479 -15.56662357 39.16458843 -22.6171875 37.3125 C-27.2067161 35.2342229 -29.81966763 32.61224156 -32 28 C-34.18239899 20.78217001 -34.60188002 14.15202769 -32 7 C-25.44142958 -4.06758758 -10.67120991 -5.97587755 0 0 Z M-15 0 C-17.3992233 4.64849515 -17.19957409 8.91086074 -17 14 C-14.36 14 -11.72 14 -9 14 C-9.33 9.71 -9.66 5.42 -10 1 C-11.65 0.67 -13.3 0.34 -15 0 Z " fill="#6A94E5" transform="translate(910,904)"/>
<path d="M0 0 C6.93 0 13.86 0 21 0 C21 12.21 21 24.42 21 37 C22.65 37 24.3 37 26 37 C26 37.66 26 38.32 26 39 C17.75 39 9.5 39 1 39 C1 38.34 1 37.68 1 37 C2.32 37 3.64 37 5 37 C5 25.45 5 13.9 5 2 C3.35 2 1.7 2 0 2 C0 1.34 0 0.68 0 0 Z " fill="#6C95E5" transform="translate(965,902)"/>
<path d="M0 0 C2.70062793 2.20960467 2.92633111 3.50536602 3.4375 6.9375 C2.86381242 10.95331304 2.17466856 12.43003021 -1 15 C-4.40526219 15.59076562 -7.6065883 15.67981537 -11 15 C-13.21725155 13.43574121 -13.88205649 12.5336944 -14.46875 9.87890625 C-14.52312928 5.84804195 -14.51264542 3.69455187 -12.0625 0.375 C-7.80733394 -1.53548272 -4.43840399 -1.32553491 0 0 Z " fill="#4C85E8" transform="translate(984,882)"/>
<path d="M0 0 C0.66 1.32 1.32 2.64 2 4 C3.0725 3.95875 4.145 3.9175 5.25 3.875 C10.93103623 3.85456462 16.43295193 4.96081769 22 6 C22 6.66 22 7.32 22 8 C6.29782129 11.06918676 6.29782129 11.06918676 -1 10 C-3.6875 8 -3.6875 8 -5 6 C-3.68 6 -2.36 6 -1 6 C-0.67 4.02 -0.34 2.04 0 0 Z " fill="#4651C4" transform="translate(684,938)"/>
<path d="M0 0 C0.33 0 0.66 0 1 0 C1.22262303 6.7281627 0.95021536 12.53991163 -1 19 C-3.77042109 16.22957891 -3.39796106 14.23466195 -3.625 10.375 C-3.69976563 9.18648437 -3.77453125 7.99796875 -3.8515625 6.7734375 C-3.90054688 5.85820313 -3.94953125 4.94296875 -4 4 C-3.01 4 -2.02 4 -1 4 C-0.67 2.68 -0.34 1.36 0 0 Z " fill="#4752BE" transform="translate(758,871)"/>
<path d="M0 0 C2 1.5 2 1.5 3 3 C1.68 3 0.36 3 -1 3 C-0.01 3.33 0.98 3.66 2 4 C1.67 5.32 1.34 6.64 1 8 C0.61070312 7.52691406 0.22140625 7.05382812 -0.1796875 6.56640625 C-2.47555415 4.59077851 -4.15218434 4.3838557 -7.125 3.9375 C-9.8203125 3.52734375 -9.8203125 3.52734375 -12 3 C-12.33 2.34 -12.66 1.68 -13 1 C-8.55522251 -0.11119437 -4.55553378 -0.29390541 0 0 Z " fill="#4B5BC3" transform="translate(787,900)"/>
<path d="M0 0 C-0.33 1.32 -0.66 2.64 -1 4 C-4.3 3.34 -7.6 2.68 -11 2 C-11 1.34 -11 0.68 -11 0 C-6.98195309 -0.84098656 -3.98196457 -1.05404945 0 0 Z " fill="#4250B5" transform="translate(736,940)"/>
<path d="M0 0 C-0.33 1.98 -0.66 3.96 -1 6 C-1.8971875 6.0309375 -1.8971875 6.0309375 -2.8125 6.0625 C-5.43314602 6.90456616 -5.43314602 6.90456616 -6.75 10.5625 C-7.1625 11.696875 -7.575 12.83125 -8 14 C-9 12 -9 12 -8.58203125 10.1953125 C-4.79245283 0 -4.79245283 0 0 0 Z " fill="#4853BB" transform="translate(683,897)"/>
<path d="M0 0 C7.425 0.99 7.425 0.99 15 2 C15 2.66 15 3.32 15 4 C11.7 4 8.4 4 5 4 C5 3.34 5 2.68 5 2 C3.35 1.67 1.7 1.34 0 1 C0 0.67 0 0.34 0 0 Z " fill="#4356B0" transform="translate(691,942)"/>
<path d="M0 0 C0.99 0.33 1.98 0.66 3 1 C2.01 2.485 2.01 2.485 1 4 C0.54605448 6.27912938 0.54605448 6.27912938 0.375 8.6875 C0.30023437 9.49574219 0.22546875 10.30398438 0.1484375 11.13671875 C0.09945312 11.75160156 0.05046875 12.36648438 0 13 C0.66 13 1.32 13 2 13 C2 14.65 2 16.3 2 18 C1.34 18 0.68 18 0 18 C-1.12589491 14.62231526 -1.13294275 11.99187928 -1.125 8.4375 C-1.12757813 7.28121094 -1.13015625 6.12492188 -1.1328125 4.93359375 C-1 2 -1 2 0 0 Z " fill="#4352AE" transform="translate(708,915)"/>
<path d="M0 0 C-2.2176277 1.90447566 -4.39879043 3.65102562 -7 5 C-9.9375 4.3125 -9.9375 4.3125 -12 3 C-7.72960125 0.1530675 -5.02025722 -1.50287955 0 0 Z " fill="#4F5EB7" transform="translate(740,918)"/>
<path d="M0 0 C0.99 0.33 1.98 0.66 3 1 C2.34 1 1.68 1 1 1 C1 1.66 1 2.32 1 3 C-0.98600337 4.3540932 -2.98817543 5.68457624 -5 7 C-6.36886951 8.29682374 -7.7169291 9.61823134 -9 11 C-8.44848637 7.23132354 -6.9602745 5.65408496 -4.125 3.1875 C-3.42632813 2.56230469 -2.72765625 1.93710937 -2.0078125 1.29296875 C-1.34523438 0.86628906 -0.68265625 0.43960938 0 0 Z " fill="#3D49BA" transform="translate(718,904)"/>
<path d="M0 0 C0.33 1.32 0.66 2.64 1 4 C-0.4800841 3.88637738 -1.95910074 3.75877092 -3.4375 3.625 C-4.26121094 3.55539062 -5.08492187 3.48578125 -5.93359375 3.4140625 C-6.61550781 3.27742187 -7.29742188 3.14078125 -8 3 C-8.33 2.34 -8.66 1.68 -9 1 C-5.846632 0.29925156 -3.27275026 0 0 0 Z " fill="#4056AD" transform="translate(783,900)"/>
<path d="M0 0 C0.33 0.99 0.66 1.98 1 3 C0.01 4.485 0.01 4.485 -1 6 C-3.97 5.505 -3.97 5.505 -7 5 C-5.49336217 1.98672434 -2.96833589 1.38943382 0 0 Z " fill="#3845B7" transform="translate(748,932)"/>
</svg>
