<?xml version="1.0" encoding="UTF-8"?>
<svg xmlns="http://www.w3.org/2000/svg" xmlns:xlink="http://www.w3.org/1999/xlink" width="150px" height="150px" viewBox="0 0 150 150" version="1.1">
<g id="surface1">
<path style=" stroke:none;fill-rule:nonzero;fill:rgb(25.490198%,29.019609%,78.431374%);fill-opacity:1;" d="M 54.421875 64.65625 C 54.503906 64.660156 54.582031 64.664062 54.667969 64.667969 C 54.75 64.671875 54.835938 64.675781 54.921875 64.679688 C 55.007812 64.679688 55.089844 64.683594 55.175781 64.6875 C 56.40625 64.742188 56.40625 64.742188 56.851562 65.175781 C 57.082031 65.636719 56.917969 66.28125 56.773438 66.75 C 56.570312 66.546875 56.582031 66.394531 56.546875 66.113281 C 56.507812 65.78125 56.507812 65.78125 56.398438 65.476562 C 55.613281 65.449219 54.855469 65.527344 54.074219 65.625 C 54.078125 65.695312 54.078125 65.695312 54.078125 65.769531 C 54.082031 65.988281 54.082031 66.207031 54.085938 66.425781 C 54.085938 66.503906 54.085938 66.578125 54.089844 66.65625 C 54.089844 66.765625 54.089844 66.765625 54.089844 66.878906 C 54.089844 66.976562 54.089844 66.976562 54.09375 67.082031 C 54.070312 67.351562 53.96875 67.5625 53.851562 67.800781 C 53.902344 67.777344 53.957031 67.753906 54.015625 67.730469 C 54.210938 67.65625 54.386719 67.613281 54.597656 67.582031 C 54.699219 67.566406 54.699219 67.566406 54.808594 67.546875 C 54.953125 67.527344 55.097656 67.503906 55.242188 67.480469 C 55.699219 67.40625 56.066406 67.277344 56.476562 67.050781 C 56.625 66.976562 56.625 66.976562 56.773438 66.976562 C 56.773438 66.925781 56.773438 66.875 56.773438 66.824219 C 56.992188 66.652344 57.144531 66.601562 57.421875 66.5625 C 57.675781 66.601562 57.675781 66.601562 57.800781 66.75 C 57.929688 67.046875 57.933594 67.296875 57.929688 67.617188 C 57.925781 67.675781 57.925781 67.738281 57.925781 67.796875 C 57.90625 68.609375 57.742188 69.542969 57.140625 70.132812 C 56.519531 70.632812 55.8125 70.851562 55.015625 70.777344 C 54.796875 70.75 54.589844 70.707031 54.375 70.648438 C 54.375 70.601562 54.375 70.550781 54.375 70.5 C 54.441406 70.488281 54.503906 70.480469 54.574219 70.46875 C 55.292969 70.339844 56.0625 70.113281 56.550781 69.523438 C 56.769531 69.054688 56.84375 68.53125 56.925781 68.023438 C 56.867188 68.046875 56.8125 68.066406 56.753906 68.089844 C 56.644531 68.128906 56.644531 68.128906 56.53125 68.171875 C 56.421875 68.210938 56.421875 68.210938 56.308594 68.253906 C 56.035156 68.347656 55.789062 68.410156 55.5 68.414062 C 54.484375 68.421875 54.484375 68.421875 53.597656 68.84375 C 53.40625 69.203125 53.332031 69.582031 53.25 69.976562 C 53.199219 69.976562 53.152344 69.976562 53.101562 69.976562 C 52.945312 69.511719 52.957031 68.957031 53.128906 68.503906 C 53.167969 68.445312 53.207031 68.386719 53.25 68.324219 C 53.300781 68.25 53.347656 68.175781 53.398438 68.101562 C 52.472656 68.136719 52.472656 68.136719 51.523438 68.175781 C 51.5 68.480469 51.480469 68.785156 51.457031 69.085938 C 51.449219 69.191406 51.441406 69.292969 51.433594 69.398438 C 51.421875 69.546875 51.410156 69.695312 51.402344 69.84375 C 51.394531 69.933594 51.386719 70.023438 51.378906 70.117188 C 51.375 70.316406 51.386719 70.460938 51.449219 70.648438 C 51.53125 70.648438 51.609375 70.644531 51.695312 70.640625 C 52.121094 70.640625 52.53125 70.722656 52.949219 70.800781 C 52.949219 70.847656 52.949219 70.898438 52.949219 70.949219 C 51.476562 71.238281 51.476562 71.238281 50.996094 70.972656 C 50.628906 70.539062 50.648438 70.011719 50.613281 69.46875 C 50.601562 69.316406 50.589844 69.164062 50.578125 69.007812 C 50.53125 68.375 50.535156 67.9375 50.890625 67.398438 C 51.507812 66.984375 52.390625 67.109375 53.101562 67.125 C 53.097656 67.078125 53.097656 67.035156 53.097656 66.988281 C 53.089844 66.78125 53.089844 66.578125 53.085938 66.371094 C 53.085938 66.300781 53.082031 66.230469 53.082031 66.15625 C 53.074219 65.71875 53.113281 65.410156 53.324219 65.023438 C 53.675781 64.683594 53.945312 64.636719 54.421875 64.65625 Z M 54.421875 64.65625 "/>
<path style=" stroke:none;fill-rule:nonzero;fill:rgb(38.431373%,56.470591%,90.196079%);fill-opacity:1;" d="M 60.675781 66.300781 C 61.246094 66.300781 61.8125 66.300781 62.398438 66.300781 C 62.53125 66.699219 62.660156 67.078125 62.761719 67.484375 C 62.785156 67.574219 62.808594 67.664062 62.832031 67.753906 C 62.867188 67.890625 62.867188 67.890625 62.902344 68.03125 C 62.925781 68.125 62.949219 68.214844 62.972656 68.3125 C 63.03125 68.542969 63.089844 68.769531 63.148438 69 C 63.277344 68.703125 63.355469 68.414062 63.425781 68.097656 C 63.4375 68.050781 63.449219 68 63.460938 67.949219 C 63.496094 67.792969 63.53125 67.636719 63.566406 67.480469 C 63.613281 67.273438 63.660156 67.066406 63.707031 66.859375 C 63.730469 66.769531 63.75 66.679688 63.769531 66.585938 C 63.824219 66.375 63.824219 66.375 63.898438 66.300781 C 64.023438 66.292969 64.144531 66.292969 64.269531 66.292969 C 64.378906 66.292969 64.378906 66.292969 64.492188 66.292969 C 64.570312 66.292969 64.648438 66.292969 64.730469 66.296875 C 64.847656 66.296875 64.847656 66.296875 64.96875 66.296875 C 65.160156 66.296875 65.355469 66.296875 65.550781 66.300781 C 65.550781 66.347656 65.550781 66.398438 65.550781 66.449219 C 65.449219 66.449219 65.351562 66.449219 65.25 66.449219 C 65.25 67.761719 65.25 69.074219 65.25 70.425781 C 65.347656 70.425781 65.449219 70.425781 65.550781 70.425781 C 65.550781 70.472656 65.550781 70.523438 65.550781 70.574219 C 64.929688 70.574219 64.3125 70.574219 63.675781 70.574219 C 63.675781 70.527344 63.675781 70.476562 63.675781 70.425781 C 63.773438 70.425781 63.871094 70.425781 63.976562 70.425781 C 63.949219 69.433594 63.925781 68.445312 63.898438 67.425781 C 63.652344 68.464844 63.40625 69.503906 63.148438 70.574219 C 62.851562 70.574219 62.554688 70.574219 62.25 70.574219 C 61.953125 69.511719 61.65625 68.445312 61.351562 67.351562 C 61.324219 68.363281 61.300781 69.378906 61.273438 70.425781 C 61.375 70.425781 61.472656 70.425781 61.574219 70.425781 C 61.574219 70.472656 61.574219 70.523438 61.574219 70.574219 C 61.277344 70.574219 60.980469 70.574219 60.675781 70.574219 C 60.675781 70.527344 60.675781 70.476562 60.675781 70.425781 C 60.796875 70.425781 60.921875 70.425781 61.050781 70.425781 C 61.050781 69.113281 61.050781 67.800781 61.050781 66.449219 C 60.925781 66.449219 60.800781 66.449219 60.675781 66.449219 C 60.675781 66.402344 60.675781 66.351562 60.675781 66.300781 Z M 60.675781 66.300781 "/>
<path style=" stroke:none;fill-rule:nonzero;fill:rgb(25.882354%,29.411766%,78.431374%);fill-opacity:1;" d="M 59.242188 67.625 C 59.636719 68.054688 59.605469 68.617188 59.644531 69.167969 C 59.652344 69.257812 59.660156 69.347656 59.667969 69.4375 C 59.757812 70.628906 59.757812 70.628906 59.449219 70.996094 C 59.148438 71.257812 58.894531 71.332031 58.507812 71.347656 C 58.4375 71.351562 58.367188 71.355469 58.296875 71.359375 C 58.222656 71.359375 58.148438 71.363281 58.074219 71.367188 C 58 71.371094 57.925781 71.375 57.847656 71.378906 C 57.664062 71.386719 57.484375 71.394531 57.300781 71.398438 C 57.300781 71.441406 57.300781 71.484375 57.304688 71.527344 C 57.308594 71.722656 57.3125 71.917969 57.3125 72.113281 C 57.316406 72.179688 57.316406 72.246094 57.320312 72.3125 C 57.324219 72.761719 57.269531 73.09375 57.074219 73.5 C 56.910156 73.613281 56.910156 73.613281 56.773438 73.648438 C 56.773438 73.699219 56.773438 73.75 56.773438 73.800781 C 56.304688 73.980469 55.855469 73.96875 55.355469 73.953125 C 55.246094 73.953125 55.136719 73.949219 55.027344 73.949219 C 54.851562 73.945312 54.671875 73.941406 54.492188 73.9375 C 54.4375 73.933594 54.378906 73.933594 54.324219 73.933594 C 53.910156 73.917969 53.617188 73.800781 53.324219 73.5 C 52.898438 72.835938 53.105469 71.464844 53.257812 70.71875 C 53.421875 70.042969 53.714844 69.546875 54.296875 69.160156 C 55.039062 68.742188 55.039062 68.742188 55.367188 68.808594 C 55.410156 68.820312 55.453125 68.835938 55.5 68.851562 C 55.402344 68.910156 55.402344 68.910156 55.300781 68.972656 C 54.652344 69.386719 54.191406 69.773438 54.007812 70.5625 C 54.003906 70.664062 54 70.769531 54 70.875 C 54 70.945312 53.996094 71.019531 53.992188 71.09375 C 53.984375 71.703125 54.03125 72.289062 54.074219 72.898438 C 54.792969 72.898438 55.511719 72.898438 56.25 72.898438 C 56.257812 72.304688 56.257812 72.304688 56.257812 71.714844 C 56.269531 71.238281 56.3125 70.9375 56.648438 70.589844 C 56.910156 70.40625 57.171875 70.417969 57.480469 70.421875 C 57.59375 70.421875 57.59375 70.421875 57.710938 70.421875 C 57.828125 70.421875 57.828125 70.421875 57.953125 70.425781 C 58.109375 70.425781 58.269531 70.429688 58.425781 70.429688 C 58.496094 70.429688 58.566406 70.429688 58.636719 70.433594 C 58.796875 70.441406 58.796875 70.441406 58.875 70.351562 C 58.910156 70.03125 58.929688 69.714844 58.953125 69.394531 C 58.964844 69.234375 58.976562 69.074219 58.988281 68.914062 C 58.996094 68.816406 59.003906 68.714844 59.007812 68.613281 C 59.015625 68.519531 59.023438 68.425781 59.03125 68.332031 C 59.046875 68.085938 59.046875 68.085938 58.875 67.875 C 58.695312 67.820312 58.695312 67.820312 58.496094 67.796875 C 58.292969 67.765625 58.292969 67.765625 58.125 67.726562 C 58.085938 67.652344 58.085938 67.652344 58.050781 67.574219 C 58.464844 67.472656 58.863281 67.402344 59.242188 67.625 Z M 59.242188 67.625 "/>
<path style=" stroke:none;fill-rule:nonzero;fill:rgb(38.82353%,56.470591%,90.196079%);fill-opacity:1;" d="M 74.398438 66.300781 C 74.761719 66.292969 75.121094 66.285156 75.480469 66.285156 C 75.601562 66.28125 75.726562 66.28125 75.847656 66.277344 C 77.234375 66.25 77.234375 66.25 77.773438 66.601562 C 78.011719 66.914062 78.042969 67.1875 78 67.574219 C 77.863281 67.964844 77.679688 68.121094 77.324219 68.324219 C 77.367188 68.34375 77.40625 68.363281 77.449219 68.378906 C 77.992188 68.632812 77.992188 68.632812 78.148438 68.925781 C 78.269531 69.277344 78.265625 69.566406 78.136719 69.914062 C 77.867188 70.332031 77.578125 70.464844 77.101562 70.574219 C 76.886719 70.59375 76.671875 70.59375 76.457031 70.589844 C 76.398438 70.589844 76.339844 70.589844 76.277344 70.589844 C 76.089844 70.589844 75.90625 70.585938 75.71875 70.585938 C 75.589844 70.582031 75.460938 70.582031 75.335938 70.582031 C 75.023438 70.582031 74.710938 70.578125 74.398438 70.574219 C 74.398438 70.527344 74.398438 70.476562 74.398438 70.425781 C 74.523438 70.425781 74.648438 70.425781 74.773438 70.425781 C 74.773438 69.113281 74.773438 67.800781 74.773438 66.449219 C 74.652344 66.449219 74.527344 66.449219 74.398438 66.449219 C 74.398438 66.402344 74.398438 66.351562 74.398438 66.300781 Z M 76.050781 66.449219 C 76.050781 67.042969 76.050781 67.636719 76.050781 68.25 C 76.542969 68.238281 76.542969 68.238281 76.679688 68.050781 C 76.738281 67.828125 76.746094 67.621094 76.75 67.390625 C 76.75 67.308594 76.75 67.226562 76.753906 67.140625 C 76.722656 66.867188 76.679688 66.730469 76.5 66.523438 C 76.277344 66.488281 76.277344 66.488281 76.050781 66.449219 Z M 76.050781 68.476562 C 76.050781 69.117188 76.050781 69.761719 76.050781 70.425781 C 76.46875 70.460938 76.46875 70.460938 76.671875 70.328125 C 76.921875 70.078125 76.890625 69.792969 76.894531 69.460938 C 76.894531 69.367188 76.898438 69.277344 76.898438 69.183594 C 76.875 68.90625 76.816406 68.769531 76.648438 68.550781 C 76.460938 68.441406 76.460938 68.441406 76.050781 68.476562 Z M 76.050781 68.476562 "/>
<path style=" stroke:none;fill-rule:nonzero;fill:rgb(39.607844%,57.254905%,90.196079%);fill-opacity:1;" d="M 70.425781 66 C 70.96875 66 71.515625 66 72.074219 66 C 72.074219 67.460938 72.074219 68.921875 72.074219 70.425781 C 72.175781 70.425781 72.273438 70.425781 72.375 70.425781 C 72.375 70.472656 72.375 70.523438 72.375 70.574219 C 71.878906 70.574219 71.386719 70.574219 70.875 70.574219 C 70.851562 70.527344 70.824219 70.476562 70.800781 70.425781 C 70.738281 70.480469 70.738281 70.480469 70.675781 70.535156 C 70.367188 70.734375 70.03125 70.6875 69.675781 70.648438 C 69.328125 70.515625 69.183594 70.292969 69 69.976562 C 68.835938 69.492188 68.828125 68.722656 69.007812 68.242188 C 69.222656 67.914062 69.449219 67.699219 69.824219 67.574219 C 70.238281 67.554688 70.402344 67.566406 70.800781 67.726562 C 70.800781 67.207031 70.800781 66.683594 70.800781 66.148438 C 70.675781 66.148438 70.550781 66.148438 70.425781 66.148438 C 70.425781 66.101562 70.425781 66.050781 70.425781 66 Z M 70.351562 67.875 C 70.164062 68.152344 70.164062 68.382812 70.148438 68.703125 C 70.144531 68.761719 70.140625 68.820312 70.140625 68.878906 C 70.089844 69.648438 70.089844 69.648438 70.351562 70.351562 C 70.566406 70.308594 70.640625 70.285156 70.800781 70.125 C 70.910156 69.796875 70.890625 69.460938 70.890625 69.121094 C 70.890625 69.058594 70.890625 68.996094 70.890625 68.929688 C 70.894531 68.574219 70.863281 68.285156 70.726562 67.949219 C 70.601562 67.925781 70.476562 67.902344 70.351562 67.875 Z M 70.351562 67.875 "/>
<path style=" stroke:none;fill-rule:nonzero;fill:rgb(40.000001%,57.254905%,90.196079%);fill-opacity:1;" d="M 84.898438 66 C 85.417969 66 85.941406 66 86.476562 66 C 86.5 66.941406 86.523438 67.882812 86.550781 68.851562 C 86.796875 68.628906 87.046875 68.40625 87.300781 68.175781 C 87.421875 68.074219 87.546875 67.976562 87.675781 67.875 C 87.550781 67.851562 87.425781 67.824219 87.300781 67.800781 C 87.300781 67.75 87.300781 67.699219 87.300781 67.648438 C 87.722656 67.648438 88.140625 67.648438 88.574219 67.648438 C 88.574219 67.699219 88.574219 67.75 88.574219 67.800781 C 88.5 67.816406 88.421875 67.832031 88.34375 67.847656 C 88.101562 67.914062 87.957031 68.015625 87.769531 68.179688 C 87.722656 68.222656 87.675781 68.261719 87.628906 68.304688 C 87.59375 68.335938 87.558594 68.367188 87.523438 68.398438 C 87.632812 68.628906 87.742188 68.855469 87.847656 69.085938 C 87.878906 69.148438 87.910156 69.210938 87.941406 69.277344 C 88.070312 69.550781 88.199219 69.820312 88.335938 70.085938 C 88.425781 70.273438 88.425781 70.273438 88.425781 70.425781 C 88.523438 70.425781 88.621094 70.425781 88.726562 70.425781 C 88.726562 70.472656 88.726562 70.523438 88.726562 70.574219 C 88.132812 70.574219 87.535156 70.574219 86.925781 70.574219 C 86.925781 70.527344 86.925781 70.476562 86.925781 70.425781 C 87 70.425781 87.074219 70.425781 87.148438 70.425781 C 86.953125 70.027344 86.753906 69.632812 86.550781 69.226562 C 86.523438 69.621094 86.5 70.015625 86.476562 70.425781 C 86.574219 70.425781 86.671875 70.425781 86.773438 70.425781 C 86.773438 70.472656 86.773438 70.523438 86.773438 70.574219 C 86.179688 70.574219 85.585938 70.574219 84.976562 70.574219 C 84.976562 70.527344 84.976562 70.476562 84.976562 70.425781 C 85.074219 70.425781 85.171875 70.425781 85.273438 70.425781 C 85.273438 69.015625 85.273438 67.601562 85.273438 66.148438 C 85.152344 66.148438 85.027344 66.148438 84.898438 66.148438 C 84.898438 66.101562 84.898438 66.050781 84.898438 66 Z M 84.898438 66 "/>
<path style=" stroke:none;fill-rule:nonzero;fill:rgb(42.352942%,58.431375%,89.803922%);fill-opacity:1;" d="M 84.300781 67.800781 C 84.660156 68.097656 84.804688 68.347656 84.851562 68.8125 C 84.859375 69.875 84.859375 69.875 84.523438 70.273438 C 83.972656 70.714844 83.402344 70.699219 82.726562 70.648438 C 82.320312 70.539062 82.042969 70.335938 81.824219 69.976562 C 81.613281 69.429688 81.585938 68.859375 81.816406 68.3125 C 82.023438 67.96875 82.308594 67.773438 82.671875 67.621094 C 83.246094 67.523438 83.78125 67.511719 84.300781 67.800781 Z M 83.101562 67.800781 C 82.851562 68.207031 82.925781 68.691406 82.925781 69.148438 C 82.925781 69.246094 82.925781 69.34375 82.921875 69.441406 C 82.921875 69.535156 82.921875 69.625 82.921875 69.722656 C 82.921875 69.804688 82.921875 69.890625 82.921875 69.976562 C 82.953125 70.21875 83.011719 70.324219 83.175781 70.5 C 83.324219 70.496094 83.324219 70.496094 83.476562 70.425781 C 83.660156 70.023438 83.648438 69.628906 83.644531 69.195312 C 83.644531 69.128906 83.644531 69.0625 83.644531 68.992188 C 83.644531 68.570312 83.59375 68.207031 83.476562 67.800781 C 83.351562 67.800781 83.226562 67.800781 83.101562 67.800781 Z M 83.101562 67.800781 "/>
<path style=" stroke:none;fill-rule:nonzero;fill:rgb(42.352942%,58.431375%,89.803922%);fill-opacity:1;" d="M 81 67.800781 C 81.359375 68.097656 81.503906 68.347656 81.550781 68.8125 C 81.5625 69.875 81.5625 69.875 81.226562 70.273438 C 80.671875 70.714844 80.101562 70.699219 79.425781 70.648438 C 79.023438 70.539062 78.742188 70.335938 78.523438 69.976562 C 78.316406 69.429688 78.285156 68.859375 78.515625 68.3125 C 78.722656 67.96875 79.007812 67.773438 79.375 67.621094 C 79.945312 67.523438 80.480469 67.511719 81 67.800781 Z M 79.800781 67.800781 C 79.550781 68.207031 79.625 68.691406 79.625 69.148438 C 79.625 69.246094 79.625 69.34375 79.621094 69.441406 C 79.621094 69.535156 79.621094 69.625 79.621094 69.722656 C 79.621094 69.804688 79.621094 69.890625 79.621094 69.976562 C 79.652344 70.21875 79.710938 70.324219 79.875 70.5 C 80.023438 70.496094 80.023438 70.496094 80.175781 70.425781 C 80.359375 70.023438 80.347656 69.628906 80.34375 69.195312 C 80.34375 69.128906 80.34375 69.0625 80.34375 68.992188 C 80.34375 68.570312 80.292969 68.207031 80.175781 67.800781 C 80.050781 67.800781 79.925781 67.800781 79.800781 67.800781 Z M 79.800781 67.800781 "/>
<path style=" stroke:none;fill-rule:nonzero;fill:rgb(41.568628%,58.039218%,89.803922%);fill-opacity:1;" d="M 68.25 67.800781 C 68.492188 67.996094 68.617188 68.171875 68.699219 68.476562 C 68.699219 68.671875 68.699219 68.871094 68.699219 69.074219 C 68.128906 69.074219 67.5625 69.074219 66.976562 69.074219 C 66.996094 69.21875 67.019531 69.359375 67.039062 69.507812 C 67.054688 69.585938 67.066406 69.667969 67.078125 69.75 C 67.121094 69.953125 67.15625 70.101562 67.273438 70.273438 C 67.574219 70.359375 67.75 70.367188 68.042969 70.269531 C 68.285156 70.097656 68.367188 69.949219 68.476562 69.675781 C 68.550781 69.675781 68.625 69.675781 68.699219 69.675781 C 68.605469 70.011719 68.496094 70.246094 68.25 70.5 C 67.757812 70.753906 67.082031 70.738281 66.554688 70.597656 C 66.210938 70.441406 66.011719 70.246094 65.851562 69.898438 C 65.6875 69.359375 65.65625 68.863281 65.851562 68.324219 C 66.34375 67.496094 67.449219 67.351562 68.25 67.800781 Z M 67.125 67.800781 C 66.945312 68.148438 66.960938 68.46875 66.976562 68.851562 C 67.171875 68.851562 67.371094 68.851562 67.574219 68.851562 C 67.550781 68.527344 67.527344 68.207031 67.5 67.875 C 67.375 67.851562 67.253906 67.824219 67.125 67.800781 Z M 67.125 67.800781 "/>
<path style=" stroke:none;fill-rule:nonzero;fill:rgb(42.352942%,58.431375%,89.803922%);fill-opacity:1;" d="M 72.375 67.648438 C 72.894531 67.648438 73.414062 67.648438 73.949219 67.648438 C 73.949219 68.566406 73.949219 69.480469 73.949219 70.425781 C 74.074219 70.425781 74.199219 70.425781 74.324219 70.425781 C 74.324219 70.472656 74.324219 70.523438 74.324219 70.574219 C 73.707031 70.574219 73.085938 70.574219 72.449219 70.574219 C 72.449219 70.527344 72.449219 70.476562 72.449219 70.425781 C 72.550781 70.425781 72.648438 70.425781 72.75 70.425781 C 72.75 69.558594 72.75 68.691406 72.75 67.800781 C 72.625 67.800781 72.503906 67.800781 72.375 67.800781 C 72.375 67.75 72.375 67.699219 72.375 67.648438 Z M 72.375 67.648438 "/>
<path style=" stroke:none;fill-rule:nonzero;fill:rgb(29.803923%,52.156866%,90.980393%);fill-opacity:1;" d="M 73.800781 66.148438 C 74.003906 66.316406 74.019531 66.414062 74.058594 66.671875 C 74.015625 66.972656 73.964844 67.082031 73.726562 67.273438 C 73.46875 67.320312 73.230469 67.324219 72.976562 67.273438 C 72.808594 67.15625 72.757812 67.089844 72.714844 66.890625 C 72.710938 66.589844 72.710938 66.425781 72.894531 66.179688 C 73.214844 66.035156 73.46875 66.050781 73.800781 66.148438 Z M 73.800781 66.148438 "/>
<path style=" stroke:none;fill-rule:nonzero;fill:rgb(27.450982%,31.764707%,76.862746%);fill-opacity:1;" d="M 51.300781 70.351562 C 51.347656 70.449219 51.398438 70.546875 51.449219 70.648438 C 51.53125 70.648438 51.609375 70.644531 51.695312 70.640625 C 52.121094 70.640625 52.53125 70.722656 52.949219 70.800781 C 52.949219 70.847656 52.949219 70.898438 52.949219 70.949219 C 51.773438 71.179688 51.773438 71.179688 51.226562 71.101562 C 51.023438 70.949219 51.023438 70.949219 50.925781 70.800781 C 51.023438 70.800781 51.121094 70.800781 51.226562 70.800781 C 51.25 70.652344 51.273438 70.503906 51.300781 70.351562 Z M 51.300781 70.351562 "/>
<path style=" stroke:none;fill-rule:nonzero;fill:rgb(27.843139%,32.156864%,74.509805%);fill-opacity:1;" d="M 56.851562 65.324219 C 56.875 65.324219 56.898438 65.324219 56.925781 65.324219 C 56.941406 65.828125 56.921875 66.265625 56.773438 66.75 C 56.566406 66.542969 56.59375 66.394531 56.578125 66.101562 C 56.574219 66.015625 56.566406 65.925781 56.5625 65.832031 C 56.558594 65.765625 56.554688 65.695312 56.550781 65.625 C 56.625 65.625 56.699219 65.625 56.773438 65.625 C 56.800781 65.527344 56.824219 65.425781 56.851562 65.324219 Z M 56.851562 65.324219 "/>
<path style=" stroke:none;fill-rule:nonzero;fill:rgb(29.411766%,35.686275%,76.47059%);fill-opacity:1;" d="M 59.023438 67.5 C 59.175781 67.613281 59.175781 67.613281 59.25 67.726562 C 59.152344 67.726562 59.050781 67.726562 58.949219 67.726562 C 59.023438 67.75 59.097656 67.773438 59.175781 67.800781 C 59.148438 67.898438 59.125 67.996094 59.101562 68.101562 C 59.070312 68.066406 59.042969 68.027344 59.011719 67.992188 C 58.839844 67.84375 58.714844 67.828125 58.492188 67.796875 C 58.289062 67.765625 58.289062 67.765625 58.125 67.726562 C 58.101562 67.675781 58.074219 67.625 58.050781 67.574219 C 58.382812 67.492188 58.683594 67.476562 59.023438 67.5 Z M 59.023438 67.5 "/>
<path style=" stroke:none;fill-rule:nonzero;fill:rgb(25.882354%,31.37255%,70.980394%);fill-opacity:1;" d="M 55.199219 70.5 C 55.175781 70.597656 55.152344 70.699219 55.125 70.800781 C 54.878906 70.75 54.628906 70.699219 54.375 70.648438 C 54.375 70.601562 54.375 70.550781 54.375 70.5 C 54.675781 70.4375 54.902344 70.421875 55.199219 70.5 Z M 55.199219 70.5 "/>
<path style=" stroke:none;fill-rule:nonzero;fill:rgb(28.235295%,32.549021%,73.333335%);fill-opacity:1;" d="M 51.226562 67.273438 C 51.199219 67.421875 51.175781 67.570312 51.148438 67.726562 C 51.082031 67.726562 51.082031 67.726562 51.015625 67.730469 C 50.816406 67.792969 50.816406 67.792969 50.71875 68.066406 C 50.6875 68.152344 50.65625 68.238281 50.625 68.324219 C 50.550781 68.175781 50.550781 68.175781 50.582031 68.039062 C 50.867188 67.273438 50.867188 67.273438 51.226562 67.273438 Z M 51.226562 67.273438 "/>
<path style=" stroke:none;fill-rule:nonzero;fill:rgb(26.274511%,33.725491%,69.01961%);fill-opacity:1;" d="M 51.824219 70.648438 C 52.382812 70.722656 52.382812 70.722656 52.949219 70.800781 C 52.949219 70.847656 52.949219 70.898438 52.949219 70.949219 C 52.703125 70.949219 52.453125 70.949219 52.199219 70.949219 C 52.199219 70.902344 52.199219 70.851562 52.199219 70.800781 C 52.078125 70.773438 51.953125 70.75 51.824219 70.726562 C 51.824219 70.699219 51.824219 70.675781 51.824219 70.648438 Z M 51.824219 70.648438 "/>
<path style=" stroke:none;fill-rule:nonzero;fill:rgb(26.274511%,32.156864%,68.235296%);fill-opacity:1;" d="M 53.101562 68.625 C 53.175781 68.648438 53.25 68.675781 53.324219 68.699219 C 53.25 68.8125 53.25 68.8125 53.175781 68.925781 C 53.140625 69.097656 53.140625 69.097656 53.128906 69.277344 C 53.121094 69.335938 53.117188 69.398438 53.109375 69.460938 C 53.109375 69.507812 53.105469 69.550781 53.101562 69.601562 C 53.148438 69.601562 53.199219 69.601562 53.25 69.601562 C 53.25 69.722656 53.25 69.847656 53.25 69.976562 C 53.199219 69.976562 53.152344 69.976562 53.101562 69.976562 C 53.015625 69.722656 53.015625 69.523438 53.015625 69.257812 C 53.015625 69.171875 53.015625 69.085938 53.015625 68.996094 C 53.023438 68.773438 53.023438 68.773438 53.101562 68.625 Z M 53.101562 68.625 "/>
<path style=" stroke:none;fill-rule:nonzero;fill:rgb(30.980393%,36.862746%,71.764708%);fill-opacity:1;" d="M 55.5 68.851562 C 55.332031 68.992188 55.171875 69.125 54.976562 69.226562 C 54.753906 69.171875 54.753906 69.171875 54.601562 69.074219 C 54.921875 68.863281 55.125 68.738281 55.5 68.851562 Z M 55.5 68.851562 "/>
<path style=" stroke:none;fill-rule:nonzero;fill:rgb(23.921569%,28.627452%,72.941178%);fill-opacity:1;" d="M 53.851562 67.800781 C 53.925781 67.824219 54 67.847656 54.074219 67.875 C 54.027344 67.875 53.976562 67.875 53.925781 67.875 C 53.925781 67.925781 53.925781 67.972656 53.925781 68.023438 C 53.777344 68.125 53.625 68.226562 53.476562 68.324219 C 53.371094 68.421875 53.269531 68.519531 53.175781 68.625 C 53.214844 68.34375 53.328125 68.222656 53.539062 68.039062 C 53.59375 67.992188 53.644531 67.945312 53.699219 67.898438 C 53.75 67.863281 53.796875 67.832031 53.851562 67.800781 Z M 53.851562 67.800781 "/>
<path style=" stroke:none;fill-rule:nonzero;fill:rgb(25.098041%,33.725491%,67.843139%);fill-opacity:1;" d="M 58.726562 67.5 C 58.75 67.597656 58.773438 67.699219 58.800781 67.800781 C 58.6875 67.792969 58.578125 67.78125 58.46875 67.773438 C 58.40625 67.765625 58.34375 67.761719 58.28125 67.757812 C 58.230469 67.746094 58.175781 67.734375 58.125 67.726562 C 58.101562 67.675781 58.074219 67.625 58.050781 67.574219 C 58.285156 67.523438 58.480469 67.5 58.726562 67.5 Z M 58.726562 67.5 "/>
<path style=" stroke:none;fill-rule:nonzero;fill:rgb(21.960784%,27.058825%,71.764708%);fill-opacity:1;" d="M 56.101562 69.898438 C 56.125 69.972656 56.148438 70.046875 56.175781 70.125 C 56.101562 70.238281 56.101562 70.238281 56.023438 70.351562 C 55.800781 70.3125 55.800781 70.3125 55.574219 70.273438 C 55.6875 70.050781 55.878906 70.003906 56.101562 69.898438 Z M 56.101562 69.898438 "/>
</g>
</svg>
